<svg data-name="Group 1328" xmlns="http://www.w3.org/2000/svg" width="67.376" height="68.003"><defs><clipPath id="a"><path data-name="Rectangle 758" fill="#fff" d="M0 0h67.376v68.003H0z"/></clipPath></defs><g data-name="Group 1327" clip-path="url(#a)" fill="#fff"><path data-name="Path 2232" d="M0 66.358V1.645A2.548 2.548 0 0 1 2.714 0Q23.207.044 43.7.019c1.88 0 2.627.743 2.627 2.607V21.48c1.041-.1 1.985-.238 2.933-.285a17.23 17.23 0 0 1 17.162 11.75 42.889 42.889 0 0 1 .953 4.255v2.264c-.068.323-.139.644-.2.968a31.248 31.248 0 0 1-3.337 8.646 121.409 121.409 0 0 1-12.014 17.928 2.126 2.126 0 0 1-3.6.008c-.6-.751-1.187-1.515-1.865-2.382-.018.263-.03.367-.032.472-.04 2.3-.64 2.882-2.958 2.882q-20.3 0-40.591.017A2.582 2.582 0 0 1 0 66.358m14.667-2.631V46.718a2.184 2.184 0 0 1 2.486-2.493h11.848c1.951 0 2.667.728 2.667 2.707v16.796h10.42c0-1.432-.019-2.825.009-4.218a2.577 2.577 0 0 0-.438-1.482c-1.8-2.9-3.637-5.779-5.317-8.747a28.4 28.4 0 0 1-3.45-8.881c-.067-.369-.241-.462-.584-.456-1.02.016-2.042.027-3.062 0a2.1 2.1 0 0 1-2.224-2.142 2.082 2.082 0 0 1 2.267-2.08c1.043-.01 2.086-.017 3.128.005a.514.514 0 0 0 .616-.5 15.784 15.784 0 0 1 .45-1.872c.221-.712.5-1.4.791-2.188h-.868c-1.42 0-2.841.033-4.259-.016a2.109 2.109 0 1 1 .108-4.213c2.174-.008 4.349 0 6.523 0a1.627 1.627 0 0 1 .655.07c.383.177.6.032.854-.245a15.894 15.894 0 0 1 4.2-3.331 1 1 0 0 0 .608-1.026c-.022-5.525-.015-11.05-.015-16.574v-1.56H4.287v59.455Zm35.327-1.3c.161-.193.268-.3.355-.428 2-2.848 4.047-5.664 5.982-8.555a61.525 61.525 0 0 0 5.258-9.383A14.049 14.049 0 0 0 63.1 39a12.466 12.466 0 0 0-4.948-10.746 12.894 12.894 0 0 0-18 1.673 11.76 11.76 0 0 0-3.1 9.628 16.475 16.475 0 0 0 1.361 4.354C41.382 50.601 45.65 56.489 50 62.435m-31.068 1.291H27.4V48.487h-8.47Z"/><path data-name="Path 2233" d="M13.85 9.364c1.085 0 2.171-.009 3.257 0a2.093 2.093 0 0 1 2.2 2.008 2.045 2.045 0 0 1-2.074 2.2q-3.421.076-6.845 0a2.108 2.108 0 1 1 .136-4.212c1.108-.012 2.215 0 3.323 0Z"/><path data-name="Path 2234" d="M32.491 18.152c1.107 0 2.215-.012 3.322 0a2.11 2.11 0 1 1 .054 4.217c-2.236.033-4.474.036-6.711 0a2.063 2.063 0 0 1-2.134-2.148 2.084 2.084 0 0 1 2.213-2.063c1.085-.015 2.17 0 3.256 0"/><path data-name="Path 2235" d="M13.848 26.94c1.107 0 2.215-.013 3.322 0a2.076 2.076 0 0 1 2.137 1.932 2 2 0 0 1-1.938 2.248c-2.367.075-4.739.071-7.106 0a2.047 2.047 0 0 1-1.961-2.181 2.108 2.108 0 0 1 2.157-2c1.129-.017 2.259 0 3.389 0Z"/><path data-name="Path 2236" d="M13.867 35.725c1.085 0 2.171-.01 3.256 0a2.082 2.082 0 0 1 2.18 1.959 2.006 2.006 0 0 1-1.964 2.225q-3.518.1-7.041 0a2.049 2.049 0 0 1-2-2.147 2.1 2.1 0 0 1 2.182-2.04c1.129-.017 2.259 0 3.389 0"/><path data-name="Path 2237" d="M13.85 18.157c1.107 0 2.215-.015 3.322 0a2.075 2.075 0 0 1 2.14 2 2.011 2.011 0 0 1-1.943 2.184q-3.551.1-7.107 0a2.046 2.046 0 0 1-1.957-2.183 2.1 2.1 0 0 1 2.156-2c1.129-.019 2.259 0 3.389 0"/><path data-name="Path 2238" d="M32.46 13.598c-1.041 0-2.082.01-3.123 0a2.125 2.125 0 0 1-2.314-2.115 2.094 2.094 0 0 1 2.3-2.112q3.223-.013 6.446 0a2.114 2.114 0 1 1 .082 4.222c-1.129.035-2.259.007-3.389.007Z"/><path data-name="Path 2239" d="M50.053 31.988a6.519 6.519 0 1 1-6.537 6.545 6.525 6.525 0 0 1 6.537-6.545m-2.313 6.5a2.289 2.289 0 1 0 2.3-2.267 2.276 2.276 0 0 0-2.3 2.267"/></g></svg>