<svg xmlns="http://www.w3.org/2000/svg" width="42.061" height="42.061"><path d="M23.367 14.02h-4.673v4.673h4.673V14.02Zm9.347 0H28.04v4.673h4.673V14.02Zm7.01 15.189a26.463 26.463 0 0 1-8.412-1.4 2.878 2.878 0 0 0-2.337.467l-5.141 5.141A36.378 36.378 0 0 1 8.412 17.993l5.141-5.141a1.86 1.86 0 0 0 .467-2.337 31.425 31.425 0 0 1-1.168-8.178A2.208 2.208 0 0 0 10.515 0H2.337A2.208 2.208 0 0 0 0 2.337a39.691 39.691 0 0 0 39.724 39.724 2.208 2.208 0 0 0 2.337-2.337v-8.179a2.208 2.208 0 0 0-2.337-2.337ZM37.387 14.02v4.673h4.673V14.02Z" fill="#cfa922" fill-rule="evenodd"/></svg>