<svg data-name="Group 1334" xmlns="http://www.w3.org/2000/svg" width="55.289" height="60.511"><defs><clipPath id="a"><path data-name="Rectangle 762" fill="#cfa922" d="M0 0h55.289v60.511H0z"/></clipPath></defs><g data-name="Group 1333" clip-path="url(#a)" fill="#cfa922"><path data-name="Path 2240" d="M8.2 53.343c0-1.646-.03-3.293.013-4.938a2.443 2.443 0 0 0-.705-1.842A27.632 27.632 0 0 1 23.389.317a27.633 27.633 0 1 1-2.378 54.13 2.369 2.369 0 0 0-2.011.352c-2.7 1.747-5.423 3.462-8.125 5.209a1.98 1.98 0 0 1-2.265.239 1.989 1.989 0 0 1-.857-2.048c.092-1.619.16-3.24.238-4.86H8.2m9.1-29.677c.195 2.264.364 4.429.586 6.589a1.224 1.224 0 0 0 .51.833 64.784 64.784 0 0 0 14.879 6.253 1.119 1.119 0 0 0 .893-.13q2.2-1.978 4.317-4.049a.892.892 0 0 0 .129-.789 56.137 56.137 0 0 0-7.674-13.41 1.03 1.03 0 0 0-.674-.392c-2.176-.053-4.353-.07-6.53-.086-.369 0-.738.047-1.119.073l-.27-1.829h6.518l.067-.25a46.075 46.075 0 0 0-6.877-6.519l-2.084 3.923-1.651-.639 2.3-4.425c-1.294-.769-2.565-1.546-3.865-2.271a.946.946 0 0 0-.755.115A23.6 23.6 0 0 0 4.9 20.028c-.731 2.157-.844 1.438.954 2.9a.589.589 0 0 0 .854-.007 47.425 47.425 0 0 1 2.832-1.922c.849-.52 1.752-.952 2.66-1.437l.638 1.567-5.23 3.175 8.192 5.395v-6.225l1.5.192m9.275 22.9c1.744 1.42 3.457 2.842 5.21 4.211a1.49 1.49 0 0 0 1.091.22 23.367 23.367 0 0 0 8-3.371 1.154 1.154 0 0 0 .621-1.114c-.1-1.792-.207-3.583-.291-5.376-.027-.569-.291-.741-.846-.806a126.63 126.63 0 0 1-5.484-.774 1.733 1.733 0 0 0-1.339.263 26.386 26.386 0 0 1-5.66 2.81l-.465-1.612 4.174-2.024-13.004-5.494 1.957 4.8-1.417.907a5.481 5.481 0 0 1-.346-.648c-.735-1.938-1.442-3.886-2.2-5.814a2.251 2.251 0 0 0-.756-1.023c-2.7-1.785-5.44-3.524-8.162-5.284-.441-.285-.862-.6-1.308-.916-.793.793-1.574 1.514-2.275 2.307a1.672 1.672 0 0 0-.363 1.077 21.61 21.61 0 0 0 2.375 9.2c1.772 3.412.91 2.571 4.431 3.615a5.048 5.048 0 0 0 .665.155c2.045.315 4.09.624 6.2.944l.12 1.589a33.731 33.731 0 0 1-7.981-1.079c.494.534.806.922 1.168 1.255a3.4 3.4 0 0 1 1.141 2.927 57.302 57.302 0 0 0-.145 3.341c-.024 1.43-.006 2.861-.006 4.324.163-.091.382-.2.588-.331 1.837-1.17 3.693-2.313 5.5-3.53a3.976 3.976 0 0 1 3.594-.555 22.562 22.562 0 0 0 7.595.821 5.049 5.049 0 0 0 .608-.11l-4.271-3.782 1.284-1.122M23 8.353c.243.221.375.335.5.455 2.13 2.02 4.413 3.907 6.334 6.108a6.977 6.977 0 0 0 4.553 2.507 60.673 60.673 0 0 1 6.131 1.548l-.856 1.605-6.4-1.7c1.336 2.154 2.6 4.049 3.714 6.029s2.069 4.033 3.174 6.212l2.316-4.076 1.805.515c-1.068 1.754-2.1 3.423-3.1 5.115a1.361 1.361 0 0 0-.161.941 94.482 94.482 0 0 0 1.362 4.505.823.823 0 0 0 .582.49 13.491 13.491 0 0 0 6.4-1.679 1.8 1.8 0 0 0 .689-.838 21.385 21.385 0 0 0 1.5-7.176 1.725 1.725 0 0 0-.421-1.123c-.742-.787-1.568-1.495-2.376-2.247l.865-1.515 1.846 1.505c-.054-4.587-3.8-12.747-6.518-14.321.251.991.543 1.96.732 2.948s.272 1.979.408 3.027l-1.813-.215a19.44 19.44 0 0 0-2.6-8.463 2.567 2.567 0 0 0-.742-.833 23.6 23.6 0 0 0-13.616-4.031 1 1 0 0 0-.683.209C25.4 5.335 24.214 6.841 23 8.353m25.35 31.169-5.4 1 .445 5.092a19.532 19.532 0 0 0 4.96-6.089m-8.814-4.848L36.5 38.131l4.222.533-1.184-3.991M18.679 5.271v.236L21.6 7.352l2.448-3.307-.109-.22-5.26 1.446M3.726 25.472l1.116-1.095-.882-.593-.234 1.688"/><path data-name="Path 2241" d="M17.366 14.445a3.975 3.975 0 0 1 3.99 4.008 4.004 4.004 0 1 1-8.008-.037 3.959 3.959 0 0 1 4.018-3.971"/><path data-name="Path 2242" d="M18.627 43.119a3.992 3.992 0 1 1 3.92 4.02 3.967 3.967 0 0 1-3.92-4.02"/><path data-name="Path 2243" d="M48.644 22.28a3.992 3.992 0 0 1-4.009 4 4.032 4.032 0 0 1-3.989-4.035 4 4 0 0 1 8 .039"/></g></svg>